<svg xmlns="http://www.w3.org/2000/svg"  viewBox="0 0 50 50" width="50px" height="50px"><path d="M 24.984375 0 A 1.0001 1.0001 0 0 0 24.292969 0.29296875 L 3.7070312 20.878906 C 2.6147718 21.971166 2 23.454103 2 25 C 2 26.545897 2.6147717 28.028834 3.7070312 29.121094 L 24.292969 49.707031 A 1.0001 1.0001 0 0 0 25.707031 49.707031 L 46.292969 29.121094 C 47.385228 28.028834 48 26.545897 48 25 C 48 23.454103 47.385228 21.971166 46.292969 20.878906 L 25.707031 0.29296875 A 1.0001 1.0001 0 0 0 24.984375 0 z M 25 2.4140625 L 44.878906 22.292969 C 45.596647 23.010709 46 23.983897 46 25 C 46 26.016103 45.596647 26.989291 44.878906 27.707031 L 25 47.585938 L 5.1210938 27.707031 C 4.4033533 26.989291 4 26.016103 4 25 C 4 23.983897 4.4033533 23.010709 5.1210938 22.292969 L 25 2.4140625 z M 25 5 L 8 22 L 11.400391 21.599609 L 25 20 L 39.710938 21.730469 L 42 22 L 25 5 z M 24 9 L 23 19 L 13 20 L 24 9 z M 26 9 L 37 20 L 27 19 L 26 9 z M 24.578125 22 L 23.773438 27 L 24.576172 27 L 24.685547 26.220703 L 25.501953 26.220703 L 25.611328 27 L 26.416016 27 L 25.611328 22 L 25.273438 22 L 24.578125 22 z M 26.710938 22.146484 L 26.710938 23.117188 L 27.480469 23.195312 L 27.480469 26.998047 L 28.265625 26.998047 L 28.265625 23.273438 L 29.035156 23.351562 L 29.035156 22.380859 L 26.710938 22.146484 z M 22.335938 22.173828 L 22.335938 24.619141 L 21.611328 22.361328 L 20.916016 22.361328 L 20.916016 27 L 21.611328 27 L 21.611328 24.722656 L 22.335938 26.916016 L 22.335938 26.998047 L 22.363281 26.998047 L 22.365234 27.003906 L 22.376953 26.998047 L 23.029297 26.998047 L 23.029297 22.173828 L 22.335938 22.173828 z M 29.746094 22.546875 L 29.746094 26.998047 L 30.53125 26.998047 L 30.53125 22.546875 L 29.746094 22.546875 z M 17.828125 22.662109 L 17.828125 27 L 18.523438 27 L 18.523438 25.21875 L 18.570312 25.21875 L 19.429688 27.003906 L 20.275391 27.003906 L 19.400391 25.1875 C 19.71132 25.118299 19.947266 24.85334 19.947266 24.521484 L 19.947266 23.357422 C 19.947266 22.973422 19.637906 22.662109 19.253906 22.662109 L 18.523438 22.662109 L 17.828125 22.662109 z M 32.046875 22.849609 C 31.770875 22.849609 31.546875 23.09925 31.546875 23.40625 L 31.546875 26.443359 C 31.546875 26.750359 31.770875 27 32.046875 27 L 33.265625 27 C 33.541625 27 33.765625 26.751359 33.765625 26.443359 L 33.765625 23.40625 C 33.765625 23.09925 33.541625 22.849609 33.265625 22.849609 L 32.046875 22.849609 z M 16.880859 22.951172 L 15.136719 23.119141 L 15.136719 23.892578 L 15.136719 27 L 15.832031 27 L 16.878906 27 L 16.878906 26.226562 L 15.832031 26.226562 L 15.832031 25.353516 L 16.880859 25.324219 L 16.880859 24.550781 L 15.832031 24.580078 L 15.832031 23.826172 L 16.880859 23.726562 L 16.880859 22.951172 z M 34.617188 23.089844 L 34.617188 26.998047 L 35.3125 26.998047 L 35.3125 25.300781 L 35.912109 27 L 36.607422 27 L 36.607422 23.267578 L 35.912109 23.267578 L 35.912109 24.773438 L 35.3125 23.089844 L 34.617188 23.089844 z M 14.414062 23.222656 L 12.484375 23.455078 L 12.484375 24.230469 L 13.101562 24.15625 L 13.101562 27 L 13.796875 27 L 13.796875 24.070312 L 14.414062 23.996094 L 14.414062 23.222656 z M 25.09375 23.287109 L 25.363281 25.21875 L 24.824219 25.21875 L 25.09375 23.287109 z M 18.523438 23.435547 L 19.253906 23.435547 L 19.253906 24.443359 L 18.523438 24.443359 L 18.523438 23.435547 z M 37.931641 23.515625 L 37.580078 25.566406 L 37.574219 25.566406 L 37.574219 25.599609 L 37.333984 27 L 38.029297 27 L 38.146484 26.322266 L 38.861328 26.322266 L 38.978516 27 L 39.673828 27 L 39.074219 23.515625 L 38.628906 23.515625 L 37.931641 23.515625 z M 8.1679688 23.660156 L 8.1679688 27 L 8.9511719 27 L 8.9511719 23.660156 L 8.1679688 23.660156 z M 9.9160156 23.660156 L 9.9160156 27 L 10.611328 27 L 10.611328 25.660156 L 11.146484 27 L 11.841797 27 L 11.841797 23.660156 L 11.146484 23.660156 L 11.146484 24.990234 L 10.611328 23.660156 L 9.9160156 23.660156 z M 32.240234 23.660156 L 33.070312 23.660156 L 33.070312 26.103516 L 32.240234 26.103516 L 32.240234 23.660156 z M 40.150391 23.660156 L 40.150391 27 L 40.935547 27 L 42 27 L 42 26.126953 L 40.935547 26.126953 L 40.935547 23.660156 L 40.150391 23.660156 z M 38.503906 24.242188 L 38.732422 25.566406 L 38.275391 25.566406 L 38.503906 24.242188 z M 8 28 L 25 45 L 42 28 L 40 28 L 38.339844 28 L 27.080078 28 L 22.849609 28 L 11.589844 28 L 10 28 L 8 28 z M 13 30 L 23 30 L 22 39 L 13 30 z M 27 30 L 37 30 L 28 39 L 27 30 z"/></svg>